<svg xmlns="http://www.w3.org/2000/svg" xmlns:xlink="http://www.w3.org/1999/xlink" width="1000" zoomAndPan="magnify" viewBox="0 0 750 749.999995" height="1000" preserveAspectRatio="xMidYMid meet" version="1.0"><defs><clipPath id="a07ade30be"><path d="M 237 204.03125 L 534 204.03125 L 534 403 L 237 403 Z M 237 204.03125 " clip-rule="nonzero"/></clipPath><clipPath id="2f596eccf2"><path d="M 1.660156 0 L 750 0 L 750 597.21875 L 1.660156 597.21875 Z M 1.660156 0 " clip-rule="nonzero"/></clipPath></defs><path fill="#f43e03" d="M 264.957031 417.410156 C 276.058594 474.53125 325.445312 517.4375 385.320312 517.4375 C 445.242188 517.4375 494.660156 474.53125 505.765625 417.410156 C 498.394531 418.484375 489.21875 419.554688 477.441406 420.738281 C 454.304688 423.027344 423.113281 425.035156 385.292969 425.035156 C 347.476562 425.035156 316.246094 423.027344 293.148438 420.738281 C 281.4375 419.554688 272.304688 418.484375 264.957031 417.410156 Z M 264.957031 417.410156 " fill-opacity="1" fill-rule="evenodd"/><g clip-path="url(#a07ade30be)"><path fill="#f43e03" d="M 385.363281 204.175781 C 360.292969 204.175781 340.167969 220.367188 340.167969 240.453125 L 340.167969 275.804688 C 340.167969 287.980469 327.308594 288.550781 323.945312 276.410156 L 317.105469 251.800781 C 286.808594 272.503906 267.539062 305.84375 264.714844 342.480469 C 248.707031 342.015625 237.421875 353.296875 237.421875 367.371094 C 237.421875 380.148438 243.472656 389.398438 254.214844 392.265625 C 263.523438 394.765625 311.300781 402.433594 385.363281 402.433594 C 459.425781 402.433594 507.203125 394.773438 516.503906 392.265625 C 527.21875 389.398438 533.304688 380.148438 533.304688 367.371094 C 533.304688 353.304688 522.019531 342.015625 506.011719 342.480469 C 503.179688 305.84375 483.910156 272.503906 453.582031 251.800781 L 446.773438 276.410156 C 443.378906 288.550781 430.519531 287.980469 430.519531 275.804688 L 430.519531 240.453125 C 430.519531 220.367188 410.398438 204.175781 385.363281 204.175781 Z M 385.363281 204.175781 " fill-opacity="1" fill-rule="evenodd"/></g><path fill="#f43e03" d="M 236.308594 663.519531 L 534.382812 663.519531 L 534.382812 716.371094 C 491.152344 721.816406 424.042969 726.191406 385.363281 726.191406 C 346.644531 726.191406 279.566406 721.816406 236.308594 716.371094 Z M 461.433594 532.222656 L 392.886719 584.574219 C 388.332031 588.089844 382.25 588.089844 377.660156 584.574219 L 309.1875 532.296875 L 279.753906 544.117188 L 279.753906 636.015625 L 236.316406 636.015625 L 236.316406 561.554688 L 188.507812 580.703125 C 168.089844 588.875 160.601562 599.765625 154.945312 616.734375 L 130.769531 689.183594 C 125.71875 710.898438 136.359375 719.050781 146.09375 722.03125 C 187.53125 731.339844 304.960938 749.917969 385.363281 749.917969 C 465.730469 749.917969 583.15625 731.332031 624.625 722.03125 C 634.335938 719.050781 644.972656 710.890625 639.925781 689.183594 L 615.746094 616.734375 C 610.089844 599.765625 602.601562 588.875 582.1875 580.703125 L 534.382812 561.554688 L 534.382812 636.007812 L 490.972656 636.007812 L 490.972656 544.109375 Z M 461.433594 532.222656 " fill-opacity="1" fill-rule="nonzero"/><g clip-path="url(#2f596eccf2)"><path fill="#114786" d="M 582.664062 340.628906 L 587.554688 372.148438 L 582.664062 403.667969 C 580.492188 417.433594 576.867188 430.839844 571.976562 443.699219 L 560.5625 473.226562 L 540.457031 498.046875 C 535.203125 504.566406 529.589844 510.542969 523.609375 516.339844 L 697.691406 597.132812 L 736.097656 530.46875 L 665.8125 479.75 C 673.238281 460.546875 678.671875 440.257812 681.933594 419.246094 L 768.160156 410.550781 L 768.160156 333.5625 L 681.933594 324.867188 C 678.671875 303.855469 673.238281 283.746094 665.8125 264.363281 L 736.097656 213.824219 L 716.894531 180.492188 L 697.691406 147.164062 L 618.53125 182.847656 C 605.308594 166.546875 590.453125 151.691406 574.332031 138.648438 L 610.015625 59.488281 L 576.6875 40.285156 L 543.355469 21.082031 L 492.816406 91.371094 C 473.613281 83.941406 453.324219 78.507812 432.3125 75.246094 L 423.617188 -10.980469 L 346.628906 -10.980469 L 337.933594 75.246094 C 316.921875 78.507812 296.8125 83.941406 277.429688 91.371094 L 226.710938 21.082031 L 160.046875 59.488281 L 195.734375 138.648438 C 179.429688 151.871094 164.574219 166.726562 151.53125 182.847656 L 72.371094 147.164062 L 53.171875 180.492188 L 33.96875 213.824219 L 104.253906 264.363281 C 96.828125 283.566406 91.390625 303.855469 88.132812 324.867188 L 1.90625 333.5625 L 1.90625 410.550781 L 88.132812 419.246094 C 91.390625 440.257812 96.828125 460.367188 104.253906 479.75 L 33.96875 530.289062 L 53.171875 563.621094 L 72.371094 596.953125 L 242.46875 512.355469 C 237.941406 507.828125 233.59375 502.9375 229.609375 497.863281 L 209.5 473.226562 L 198.089844 443.699219 C 193.195312 430.839844 189.574219 417.253906 187.398438 403.667969 L 182.507812 372.148438 L 187.398438 340.628906 C 189.574219 326.859375 193.195312 313.457031 198.089844 300.59375 L 209.5 271.066406 L 229.609375 246.25 C 238.484375 235.382812 248.265625 225.597656 259.132812 216.722656 L 283.769531 196.617188 L 313.296875 185.203125 C 326.339844 180.3125 339.746094 176.6875 353.332031 174.515625 L 384.851562 169.625 L 416.371094 174.515625 C 430.136719 176.6875 443.542969 180.3125 456.40625 185.203125 L 485.929688 196.617188 L 510.75 216.722656 C 521.617188 225.597656 531.398438 235.382812 540.277344 246.25 L 560.382812 270.886719 L 571.796875 300.414062 C 576.867188 313.457031 580.492188 326.859375 582.664062 340.628906 " fill-opacity="1" fill-rule="evenodd"/></g></svg>